<?xml version="1.0" encoding="UTF-8" standalone="no"?>
<!-- Created with Inkscape (http://www.inkscape.org/) -->

<svg
   height="25"
   viewBox="0 0 6.6145832 6.6145835"
   width="25"
   xmlns:inkscape="http://www.inkscape.org/namespaces/inkscape"
   xmlns:sodipodi="http://sodipodi.sourceforge.net/DTD/sodipodi-0.dtd"
   xmlns="http://www.w3.org/2000/svg"
   xmlns:svg="http://www.w3.org/2000/svg">
   <path
      d="m 3.2896046,1.5308634 c 0.085266,0 0.1578322,0.029934 0.2176996,0.089801 0.059867,0.059867 0.089801,0.132434 0.089801,0.2176997 0,0.083452 -0.029934,0.155111 -0.089801,0.2149784 -0.059867,0.059867 -0.1324339,0.089801 -0.2176996,0.089801 -0.083451,0 -0.156018,-0.029027 -0.2176996,-0.08708 C 3.012038,1.9961965 2.982104,1.9236296 2.982104,1.8383639 c 0,-0.085266 0.029934,-0.1578323 0.089801,-0.2176997 0.061682,-0.059867 0.1342481,-0.089801 0.2176996,-0.089801 z M 2.660996,5.0837199 2.636505,5.0592289 V 4.9449368 l 0.024491,-0.02177 c 0.1759739,-0.010885 0.2748458,-0.019049 0.2966157,-0.024491 0.023584,-0.00544 0.04354,-0.016328 0.059867,-0.032655 0.018142,-0.018142 0.029934,-0.044447 0.035376,-0.078916 0.00726,-0.036283 0.014513,-0.1532968 0.02177,-0.3510406 0.00907,-0.199558 0.013606,-0.3501336 0.013606,-0.4517267 V 3.4482519 c 0,-0.072566 -0.00363,-0.1714384 -0.010885,-0.2966157 -0.00726,-0.1251773 -0.013606,-0.2022792 -0.019049,-0.2313058 -0.00363,-0.029026 -0.017234,-0.04989 -0.040818,-0.062589 -0.023584,-0.014513 -0.070752,-0.02177 -0.1415047,-0.02177 l -0.2285846,-0.00272 -0.024491,-0.02177 V 2.6944657 l 0.02177,-0.02177 C 2.9911737,2.6309707 3.283254,2.5629401 3.5209094,2.4686036 l 1e-6,1e-7 0.051704,0.035376 c -0.019956,0.2376555 -0.029934,0.5397137 -0.029934,0.9061747 v 0.6150014 c 0,0.039912 0.00363,0.1687172 0.010885,0.3864168 0.00726,0.2158854 0.014513,0.3419698 0.02177,0.378253 0.00907,0.036284 0.02177,0.062589 0.038097,0.078916 0.016328,0.016328 0.036284,0.027212 0.059867,0.032655 0.023584,0.00363 0.1215489,0.010885 0.2938945,0.02177 l 0.024491,0.02177 v 0.1387833 z"
      id="path10898"
      style="font-size:10.5833px;line-height:1.25;font-family:'Palatino Linotype';-inkscape-font-specification:'Palatino Linotype';fill:none;stroke:#0066ff;stroke-width:0.105833;stroke-miterlimit:4;stroke-dasharray:none"
      sodipodi:nodetypes="ssssscscscccccsccsssccccccccccssccsccccc" />
</svg>
